<?xml version="1.0" encoding="UTF-8" standalone="no"?><!DOCTYPE svg PUBLIC "-//W3C//DTD SVG 1.1//EN" "http://www.w3.org/Graphics/SVG/1.1/DTD/svg11.dtd"><svg width="100%" height="100%" id="FlowerLogo" viewBox="0 0 139 37" version="1.1" xmlns="http://www.w3.org/2000/svg" xmlns:xlink="http://www.w3.org/1999/xlink" style="fill-rule:evenodd;clip-rule:evenodd;stroke-linejoin:round;stroke-miterlimit:2;"><path d="M18.28,23.958c-0.028,0.007 -0.058,0.01 -0.088,0.01c-0.023,0 -0.047,-0.002 -0.07,-0.006c-1.023,3.095 -2.184,6.177 -3.26,8.041c-0.064,0.111 -0.133,0.218 -0.206,0.321c-0.005,0.177 -0.008,0.35 -0.008,0.516c-0,1.956 1.588,3.545 3.544,3.545c1.957,-0 3.545,-1.589 3.545,-3.545c0,-0.191 -0.004,-0.39 -0.012,-0.597c-0.055,-0.081 -0.108,-0.165 -0.158,-0.251c-1.082,-1.86 -2.253,-4.94 -3.287,-8.034Zm-3.001,-0.809c-2.418,2.17 -4.95,4.263 -6.811,5.352c-0.791,1.541 -0.24,3.449 1.276,4.325c1.41,0.814 3.178,0.457 4.173,-0.768c0.111,-2.391 0.686,-5.702 1.362,-8.909Zm5.82,-0.03c0.672,3.184 1.246,6.472 1.365,8.864c0.99,1.271 2.793,1.647 4.224,0.815c1.513,-0.88 2.058,-2.791 1.262,-4.329c-1.87,-1.087 -4.419,-3.18 -6.851,-5.35Zm27.953,2.589c-0.007,0.013 -0.034,0.057 -0.08,0.131c-0.045,0.074 -0.103,0.168 -0.174,0.281c-0.07,0.114 -0.15,0.243 -0.24,0.387c-0.09,0.145 -0.182,0.294 -0.277,0.449c-0.095,0.155 -0.19,0.31 -0.283,0.463c-0.094,0.154 -0.182,0.298 -0.264,0.432c-0.082,0.134 -0.153,0.253 -0.213,0.357c-0.06,0.104 -0.104,0.183 -0.133,0.235c-0.028,0.052 -0.069,0.132 -0.121,0.242c-0.052,0.109 -0.112,0.235 -0.18,0.377c-0.067,0.142 -0.139,0.295 -0.216,0.459c-0.077,0.164 -0.154,0.328 -0.231,0.494c-0.077,0.165 -0.151,0.325 -0.222,0.48c-0.072,0.155 -0.136,0.294 -0.192,0.416c-0.056,0.123 -0.102,0.224 -0.139,0.303c-0.036,0.08 -0.057,0.127 -0.062,0.143c-0.023,0.06 -0.045,0.097 -0.064,0.111c-0.02,0.014 -0.048,0.025 -0.084,0.033c-0.019,0.003 -0.033,-0.002 -0.043,-0.015c-0.011,-0.013 -0.02,-0.029 -0.028,-0.047c-0.008,-0.019 -0.015,-0.035 -0.023,-0.049c-0.008,-0.014 -0.017,-0.023 -0.028,-0.026c-0.033,-0.005 -0.052,-0.012 -0.056,-0.021c-0.004,-0.009 -0.013,-0.027 -0.026,-0.053c-0.007,-0.01 -0.015,-0.016 -0.023,-0.017c-0.008,-0.002 -0.016,-0.002 -0.023,-0.002c-0.008,-0 -0.014,-0.002 -0.018,-0.004c-0.004,-0.003 -0.006,-0.011 -0.006,-0.024c0.005,-0.044 0.01,-0.088 0.014,-0.132c0.004,-0.045 0.01,-0.085 0.017,-0.122c0.008,-0.028 0.035,-0.088 0.08,-0.179c0.046,-0.091 0.103,-0.203 0.17,-0.334c0.068,-0.132 0.144,-0.278 0.229,-0.438c0.085,-0.16 0.17,-0.323 0.258,-0.488c0.087,-0.165 0.173,-0.329 0.258,-0.49c0.084,-0.162 0.16,-0.309 0.228,-0.442c-0.034,-0.073 -0.079,-0.167 -0.137,-0.283c-0.057,-0.116 -0.119,-0.245 -0.187,-0.387c-0.068,-0.141 -0.14,-0.292 -0.217,-0.451c-0.077,-0.159 -0.152,-0.316 -0.225,-0.472c-0.073,-0.157 -0.143,-0.308 -0.211,-0.454c-0.067,-0.145 -0.126,-0.276 -0.177,-0.392c-0.051,-0.116 -0.091,-0.212 -0.119,-0.289c-0.029,-0.077 -0.043,-0.124 -0.043,-0.143c0.002,-0.031 0.009,-0.052 0.019,-0.064c0.011,-0.012 0.024,-0.018 0.041,-0.018c0.017,0 0.035,0.004 0.055,0.012c0.019,0.008 0.04,0.016 0.06,0.023c0.032,0.013 0.062,0.026 0.09,0.038c0.029,0.011 0.05,0.007 0.063,-0.014c0.008,-0.021 0.03,-0.032 0.066,-0.033c0.037,-0.002 0.067,0.004 0.09,0.017c0.008,0.008 0.015,0.011 0.021,0.008c0.007,-0.003 0.013,-0.008 0.02,-0.016c0.007,-0.007 0.014,-0.016 0.023,-0.025c0.01,-0.009 0.021,-0.016 0.034,-0.021c0.028,-0.006 0.054,-0 0.078,0.015c0.023,0.016 0.045,0.05 0.066,0.102c0.013,0.039 0.04,0.106 0.08,0.203c0.041,0.096 0.089,0.208 0.145,0.336c0.056,0.127 0.118,0.265 0.185,0.412c0.068,0.147 0.136,0.292 0.203,0.433c0.068,0.142 0.133,0.276 0.194,0.401c0.061,0.125 0.115,0.229 0.162,0.312c0.07,-0.13 0.146,-0.269 0.228,-0.416c0.082,-0.147 0.166,-0.294 0.25,-0.441c0.085,-0.147 0.169,-0.291 0.252,-0.432c0.084,-0.14 0.163,-0.271 0.237,-0.39c0.074,-0.12 0.14,-0.225 0.197,-0.315c0.057,-0.09 0.104,-0.158 0.141,-0.205c0.02,-0.026 0.031,-0.043 0.031,-0.051c-0,-0.007 0.01,-0.015 0.031,-0.023c0.016,-0.005 0.029,-0.01 0.041,-0.016c0.012,-0.005 0.031,-0.005 0.057,0c0.023,0.006 0.041,0.008 0.054,0.008c0.013,0 0.024,0.008 0.032,0.024c0.005,0.007 0.013,0.01 0.023,0.007c0.011,-0.002 0.023,-0.007 0.037,-0.013c0.015,-0.007 0.03,-0.013 0.045,-0.02c0.016,-0.006 0.031,-0.008 0.047,-0.006c0.018,0.003 0.037,0.006 0.055,0.01c0.018,0.004 0.034,0.011 0.049,0.022c0.014,0.01 0.022,0.023 0.025,0.039c0.003,0.015 -0.003,0.035 -0.016,0.058Zm-31.806,-4.199c-0.491,0.497 -0.868,0.872 -1.088,1.089c-0.593,2.739 -1.129,5.607 -1.372,7.942c0.971,-1.996 1.977,-4.786 2.861,-7.519c-0.101,-0.373 -0.238,-0.887 -0.401,-1.512Zm1.895,-0.011c-0.16,0.615 -0.296,1.123 -0.396,1.495c0.879,2.69 1.877,5.436 2.841,7.427c-0.249,-2.32 -0.78,-5.147 -1.365,-7.848c-0.224,-0.22 -0.598,-0.59 -1.08,-1.074Zm33.79,5.105c0.003,0.091 -0.005,0.202 -0.023,0.334c-0.018,0.131 -0.039,0.272 -0.063,0.422c-0.023,0.149 -0.045,0.302 -0.066,0.459c-0.021,0.156 -0.031,0.303 -0.031,0.441c-0,0.091 0.006,0.178 0.019,0.26c0.013,0.082 0.035,0.153 0.067,0.213c0.018,0.034 0.028,0.063 0.029,0.089c0.001,0.027 -0.001,0.049 -0.006,0.069c-0.005,0.019 -0.01,0.036 -0.016,0.051c-0.005,0.014 -0.005,0.028 0,0.041c0.006,0.013 0.004,0.028 -0.004,0.045c-0.007,0.017 -0.019,0.032 -0.035,0.046c-0.015,0.015 -0.033,0.025 -0.052,0.032c-0.02,0.006 -0.038,0.004 -0.053,-0.006c-0.029,-0.018 -0.052,-0.029 -0.068,-0.031c-0.017,-0.003 -0.032,-0.002 -0.043,0.002c-0.012,0.003 -0.023,0.008 -0.032,0.013c-0.009,0.005 -0.02,0.005 -0.033,0c-0.044,-0.023 -0.092,-0.051 -0.144,-0.082c-0.053,-0.031 -0.086,-0.065 -0.102,-0.101c-0.01,-0.016 -0.02,-0.042 -0.029,-0.079c-0.009,-0.036 -0.017,-0.079 -0.024,-0.128c-0.006,-0.05 -0.012,-0.103 -0.017,-0.161c-0.006,-0.057 -0.009,-0.113 -0.012,-0.168c-0.086,0.162 -0.178,0.296 -0.275,0.403c-0.098,0.107 -0.196,0.192 -0.293,0.256c-0.098,0.063 -0.194,0.108 -0.289,0.134c-0.096,0.026 -0.182,0.039 -0.26,0.039c-0.081,0 -0.152,-0.01 -0.213,-0.031c-0.061,-0.021 -0.109,-0.045 -0.143,-0.074c-0.127,-0.128 -0.218,-0.231 -0.271,-0.311c-0.054,-0.079 -0.078,-0.143 -0.072,-0.193c0.013,-0.167 0.053,-0.32 0.121,-0.461c0.067,-0.14 0.152,-0.27 0.254,-0.388c0.101,-0.119 0.215,-0.226 0.341,-0.321c0.127,-0.095 0.256,-0.179 0.387,-0.254c0.132,-0.074 0.261,-0.136 0.389,-0.187c0.127,-0.051 0.243,-0.092 0.347,-0.123c-0.005,-0.141 -0.011,-0.264 -0.017,-0.369c-0.007,-0.106 -0.016,-0.183 -0.029,-0.233c-0.04,-0.161 -0.099,-0.282 -0.18,-0.361c-0.081,-0.08 -0.179,-0.119 -0.293,-0.119c-0.073,-0 -0.147,0.027 -0.221,0.082c-0.074,0.054 -0.141,0.129 -0.201,0.222c-0.06,0.094 -0.109,0.202 -0.146,0.325c-0.038,0.122 -0.058,0.251 -0.061,0.386c-0,0.034 0.001,0.067 0.004,0.098c0.002,0.031 0.006,0.064 0.012,0.098c0.002,0.018 -0.004,0.031 -0.018,0.039c-0.014,0.008 -0.032,0.013 -0.053,0.017c-0.021,0.004 -0.043,0.007 -0.066,0.01c-0.024,0.003 -0.043,0.007 -0.059,0.012c-0.013,0.005 -0.023,0.008 -0.031,0.01c-0.008,0.001 -0.016,-0 -0.023,-0.004c-0.008,-0.004 -0.018,-0.011 -0.03,-0.022c-0.011,-0.01 -0.028,-0.023 -0.049,-0.039c-0.02,-0.016 -0.042,-0.029 -0.064,-0.039l-0.102,-0.049c-0.011,-0.006 -0.017,-0.015 -0.017,-0.025c-0,-0.162 0.036,-0.328 0.107,-0.5c0.072,-0.172 0.168,-0.329 0.289,-0.471c0.121,-0.142 0.262,-0.258 0.422,-0.35c0.16,-0.091 0.33,-0.136 0.51,-0.136c0.146,-0 0.272,0.022 0.379,0.066c0.107,0.044 0.198,0.102 0.273,0.172c0.076,0.07 0.138,0.148 0.186,0.234c0.048,0.086 0.086,0.173 0.113,0.26c0.028,0.087 0.047,0.169 0.059,0.246c0.011,0.077 0.019,0.14 0.021,0.19Zm15.832,-2.926c0,0.036 -0.002,0.108 -0.008,0.215c-0.005,0.107 -0.011,0.235 -0.019,0.385c-0.008,0.149 -0.016,0.313 -0.025,0.492c-0.01,0.178 -0.019,0.357 -0.03,0.535c-0.01,0.178 -0.019,0.351 -0.027,0.517c-0.008,0.167 -0.013,0.313 -0.016,0.438c-0.005,0.076 -0.008,0.159 -0.009,0.25c-0.002,0.091 -0.002,0.189 -0.002,0.293c-0,0.138 0,0.282 0.002,0.432c0.001,0.149 0.003,0.297 0.005,0.443c0.003,0.146 0.006,0.286 0.01,0.42c0.004,0.134 0.007,0.254 0.01,0.361c0.003,0.107 0.004,0.196 0.006,0.268c0.001,0.071 0.002,0.116 0.002,0.135c-0,0.036 -0.006,0.064 -0.018,0.084c-0.012,0.019 -0.026,0.032 -0.043,0.039c-0.017,0.006 -0.034,0.007 -0.053,0.004c-0.018,-0.004 -0.033,-0.01 -0.046,-0.018c-0.016,-0.008 -0.028,-0.017 -0.038,-0.027c-0.009,-0.011 -0.016,-0.019 -0.021,-0.024c-0.005,-0.005 -0.01,-0.006 -0.014,-0.004c-0.004,0.003 -0.007,0.013 -0.009,0.031c-0.008,0.068 -0.023,0.119 -0.045,0.153c-0.023,0.034 -0.046,0.056 -0.071,0.068c-0.024,0.012 -0.047,0.015 -0.068,0.01c-0.021,-0.005 -0.034,-0.014 -0.039,-0.027c-0.005,-0.013 -0.014,-0.021 -0.026,-0.024c-0.011,-0.002 -0.024,-0.004 -0.037,-0.006c-0.013,-0.001 -0.025,-0.005 -0.037,-0.011c-0.011,-0.007 -0.019,-0.021 -0.021,-0.041c-0.021,-0.089 -0.034,-0.202 -0.039,-0.338c-0.005,-0.137 -0.008,-0.291 -0.008,-0.463c-0,-0.149 0.001,-0.309 0.004,-0.481c0.002,-0.172 0.004,-0.347 0.004,-0.527l-0,-0.311c-0,-0.102 -0.003,-0.207 -0.008,-0.314l-0,-0.246c-0,-0.211 0.005,-0.423 0.016,-0.635c0.01,-0.212 0.023,-0.416 0.039,-0.611c0.015,-0.196 0.032,-0.379 0.05,-0.551c0.019,-0.172 0.034,-0.324 0.047,-0.457c0.013,-0.133 0.024,-0.241 0.031,-0.324c0.008,-0.084 0.011,-0.136 0.008,-0.156c-0.002,-0.019 -0,-0.032 0.006,-0.04c0.007,-0.007 0.016,-0.012 0.028,-0.013c0.011,-0.002 0.024,-0.003 0.037,-0.004c0.013,-0.001 0.024,-0.005 0.035,-0.01c0.018,-0.01 0.033,-0.014 0.045,-0.01c0.011,0.004 0.021,0.01 0.029,0.018c0.008,0.008 0.015,0.016 0.021,0.025c0.007,0.009 0.017,0.014 0.03,0.014c0.015,-0.003 0.028,-0.007 0.037,-0.014l0.043,-0.037c0.006,-0.005 0.015,-0.006 0.025,-0.004c0.021,0.006 0.041,0.009 0.061,0.01c0.019,0.001 0.029,-0.002 0.029,-0.01c0.005,-0.021 0.013,-0.03 0.024,-0.029c0.01,0.001 0.023,0.008 0.039,0.021c0.015,0.014 0.028,0.027 0.039,0.042c0.01,0.014 0.015,0.035 0.015,0.064Zm10.571,-0c-0,0.036 -0.003,0.108 -0.008,0.215c-0.005,0.107 -0.012,0.235 -0.02,0.385c-0.008,0.149 -0.016,0.313 -0.025,0.492c-0.009,0.178 -0.019,0.357 -0.029,0.535c-0.011,0.178 -0.02,0.351 -0.028,0.517c-0.008,0.167 -0.013,0.313 -0.015,0.438c-0.006,0.076 -0.009,0.159 -0.01,0.25c-0.001,0.091 -0.002,0.189 -0.002,0.293c-0,0.138 0.001,0.282 0.002,0.432c0.001,0.149 0.003,0.297 0.006,0.443c0.002,0.146 0.006,0.286 0.009,0.42c0.004,0.134 0.008,0.254 0.01,0.361c0.003,0.107 0.005,0.196 0.006,0.268c0.001,0.071 0.002,0.116 0.002,0.135c0,0.036 -0.006,0.064 -0.018,0.084c-0.011,0.019 -0.026,0.032 -0.043,0.039c-0.016,0.006 -0.034,0.007 -0.052,0.004c-0.018,-0.004 -0.034,-0.01 -0.047,-0.018c-0.016,-0.008 -0.028,-0.017 -0.037,-0.027c-0.009,-0.011 -0.017,-0.019 -0.022,-0.024c-0.005,-0.005 -0.009,-0.006 -0.013,-0.004c-0.004,0.003 -0.008,0.013 -0.01,0.031c-0.008,0.068 -0.023,0.119 -0.045,0.153c-0.022,0.034 -0.046,0.056 -0.07,0.068c-0.025,0.012 -0.048,0.015 -0.069,0.01c-0.021,-0.005 -0.034,-0.014 -0.039,-0.027c-0.005,-0.013 -0.013,-0.021 -0.025,-0.024c-0.012,-0.002 -0.024,-0.004 -0.037,-0.006c-0.013,-0.001 -0.026,-0.005 -0.037,-0.011c-0.012,-0.007 -0.019,-0.021 -0.022,-0.041c-0.021,-0.089 -0.034,-0.202 -0.039,-0.338c-0.005,-0.137 -0.008,-0.291 -0.008,-0.463c0,-0.149 0.002,-0.309 0.004,-0.481c0.003,-0.172 0.004,-0.347 0.004,-0.527l0,-0.311c0,-0.102 -0.003,-0.207 -0.008,-0.314l0,-0.246c0,-0.211 0.005,-0.423 0.016,-0.635c0.01,-0.212 0.023,-0.416 0.039,-0.611c0.016,-0.196 0.032,-0.379 0.051,-0.551c0.018,-0.172 0.034,-0.324 0.047,-0.457c0.013,-0.133 0.023,-0.241 0.031,-0.324c0.008,-0.084 0.01,-0.136 0.008,-0.156c-0.003,-0.019 -0.001,-0.032 0.005,-0.04c0.007,-0.007 0.016,-0.012 0.028,-0.013c0.012,-0.002 0.024,-0.003 0.037,-0.004c0.013,-0.001 0.025,-0.005 0.035,-0.01c0.018,-0.01 0.033,-0.014 0.045,-0.01c0.012,0.004 0.021,0.01 0.029,0.018c0.008,0.008 0.015,0.016 0.022,0.025c0.006,0.009 0.016,0.014 0.029,0.014c0.016,-0.003 0.028,-0.007 0.037,-0.014l0.043,-0.037c0.007,-0.005 0.015,-0.006 0.026,-0.004c0.02,0.006 0.041,0.009 0.06,0.01c0.02,0.001 0.029,-0.002 0.029,-0.01c0.006,-0.021 0.013,-0.03 0.024,-0.029c0.01,0.001 0.023,0.008 0.039,0.021c0.016,0.014 0.029,0.027 0.039,0.042c0.01,0.014 0.016,0.035 0.016,0.064Zm-9.219,-0c-0,0.036 -0.003,0.108 -0.008,0.215c-0.005,0.107 -0.012,0.235 -0.02,0.385c-0.007,0.149 -0.016,0.313 -0.025,0.492c-0.009,0.178 -0.019,0.357 -0.029,0.535c-0.011,0.178 -0.02,0.351 -0.028,0.517c-0.007,0.167 -0.013,0.313 -0.015,0.438c-0.005,0.076 -0.009,0.159 -0.01,0.25c-0.001,0.091 -0.002,0.189 -0.002,0.293c0,0.138 0.001,0.282 0.002,0.432c0.001,0.149 0.003,0.297 0.006,0.443c0.003,0.146 0.006,0.286 0.01,0.42c0.004,0.134 0.007,0.254 0.009,0.361c0.003,0.107 0.005,0.196 0.006,0.268c0.002,0.071 0.002,0.116 0.002,0.135c0,0.036 -0.006,0.064 -0.017,0.084c-0.012,0.019 -0.026,0.032 -0.043,0.039c-0.017,0.006 -0.035,0.007 -0.053,0.004c-0.018,-0.004 -0.034,-0.01 -0.047,-0.018c-0.016,-0.008 -0.028,-0.017 -0.037,-0.027c-0.009,-0.011 -0.016,-0.019 -0.021,-0.024c-0.006,-0.005 -0.01,-0.006 -0.014,-0.004c-0.004,0.003 -0.007,0.013 -0.01,0.031c-0.008,0.068 -0.023,0.119 -0.045,0.153c-0.022,0.034 -0.045,0.056 -0.07,0.068c-0.025,0.012 -0.048,0.015 -0.069,0.01c-0.02,-0.005 -0.033,-0.014 -0.039,-0.027c-0.005,-0.013 -0.013,-0.021 -0.025,-0.024c-0.012,-0.002 -0.024,-0.004 -0.037,-0.006c-0.013,-0.001 -0.025,-0.005 -0.037,-0.011c-0.012,-0.007 -0.019,-0.021 -0.022,-0.041c-0.02,-0.089 -0.034,-0.202 -0.039,-0.338c-0.005,-0.137 -0.008,-0.291 -0.008,-0.463c0,-0.149 0.002,-0.309 0.004,-0.481c0.003,-0.172 0.004,-0.347 0.004,-0.527l0,-0.311c0,-0.102 -0.002,-0.207 -0.008,-0.314l0,-0.246c0,-0.211 0.006,-0.423 0.016,-0.635c0.011,-0.212 0.024,-0.416 0.039,-0.611c0.016,-0.196 0.033,-0.379 0.051,-0.551c0.018,-0.172 0.034,-0.324 0.047,-0.457c0.013,-0.133 0.023,-0.241 0.031,-0.324c0.008,-0.084 0.01,-0.136 0.008,-0.156c-0.003,-0.019 -0.001,-0.032 0.006,-0.04c0.006,-0.007 0.015,-0.012 0.027,-0.013c0.012,-0.002 0.024,-0.003 0.037,-0.004c0.013,-0.001 0.025,-0.005 0.035,-0.01c0.019,-0.01 0.034,-0.014 0.045,-0.01c0.012,0.004 0.022,0.01 0.03,0.018c0.007,0.008 0.015,0.016 0.021,0.025c0.007,0.009 0.016,0.014 0.029,0.014c0.016,-0.003 0.028,-0.007 0.037,-0.014l0.043,-0.037c0.007,-0.005 0.015,-0.006 0.026,-0.004c0.021,0.006 0.041,0.009 0.06,0.01c0.02,0.001 0.03,-0.002 0.03,-0.01c0.005,-0.021 0.013,-0.03 0.023,-0.029c0.011,0.001 0.024,0.008 0.039,0.021c0.016,0.014 0.029,0.027 0.039,0.042c0.011,0.014 0.016,0.035 0.016,0.064Zm16.82,3.789c0,0.029 0.001,0.063 0.004,0.102c0.003,0.039 0.004,0.083 0.004,0.132c-0,0.063 -0.009,0.14 -0.027,0.233c-0.019,0.092 -0.048,0.189 -0.088,0.291c-0.041,0.101 -0.095,0.203 -0.162,0.305c-0.068,0.101 -0.151,0.192 -0.25,0.273c-0.099,0.081 -0.216,0.146 -0.35,0.197c-0.134,0.051 -0.287,0.076 -0.459,0.076c-0.154,0 -0.311,-0.029 -0.471,-0.087c-0.16,-0.059 -0.306,-0.15 -0.437,-0.274c-0.132,-0.124 -0.24,-0.281 -0.324,-0.473c-0.085,-0.191 -0.127,-0.42 -0.127,-0.685c-0,-0.167 0.021,-0.331 0.064,-0.492c0.043,-0.162 0.1,-0.314 0.172,-0.457c0.072,-0.144 0.156,-0.276 0.254,-0.397c0.098,-0.121 0.2,-0.225 0.308,-0.312c0.109,-0.088 0.221,-0.156 0.336,-0.205c0.116,-0.05 0.229,-0.075 0.338,-0.075c0.19,0 0.347,0.03 0.471,0.09c0.124,0.06 0.222,0.134 0.295,0.223c0.073,0.088 0.124,0.183 0.154,0.283c0.03,0.1 0.045,0.191 0.045,0.272c0,0.078 -0.019,0.167 -0.056,0.267c-0.038,0.1 -0.1,0.195 -0.186,0.285c-0.086,0.09 -0.198,0.166 -0.336,0.227c-0.138,0.061 -0.307,0.092 -0.508,0.092c-0.107,-0 -0.202,-0.015 -0.287,-0.045c-0.085,-0.03 -0.159,-0.068 -0.225,-0.114c-0.065,-0.045 -0.12,-0.095 -0.166,-0.148c-0.045,-0.053 -0.084,-0.104 -0.115,-0.15c-0.047,0.161 -0.07,0.35 -0.07,0.566c-0,0.148 0.021,0.282 0.064,0.4c0.043,0.119 0.103,0.22 0.178,0.303c0.076,0.083 0.165,0.147 0.27,0.192c0.104,0.044 0.218,0.066 0.343,0.066c0.157,-0 0.293,-0.027 0.411,-0.08c0.117,-0.053 0.219,-0.121 0.306,-0.201c0.087,-0.081 0.163,-0.169 0.227,-0.264c0.064,-0.095 0.119,-0.182 0.166,-0.262c0.047,-0.079 0.088,-0.145 0.123,-0.197c0.035,-0.052 0.069,-0.077 0.103,-0.074c0.016,-0 0.024,0.013 0.024,0.039c-0,0.013 -0.002,0.026 -0.004,0.039c-0.003,0.013 -0.007,0.026 -0.012,0.039Zm-19.473,0c0,0.029 0.002,0.063 0.004,0.102c0.003,0.039 0.004,0.083 0.004,0.132c0,0.063 -0.009,0.14 -0.027,0.233c-0.018,0.092 -0.048,0.189 -0.088,0.291c-0.04,0.101 -0.094,0.203 -0.162,0.305c-0.068,0.101 -0.151,0.192 -0.25,0.273c-0.099,0.081 -0.216,0.146 -0.35,0.197c-0.134,0.051 -0.287,0.076 -0.459,0.076c-0.153,0 -0.31,-0.029 -0.47,-0.087c-0.16,-0.059 -0.306,-0.15 -0.438,-0.274c-0.131,-0.124 -0.239,-0.281 -0.324,-0.473c-0.085,-0.191 -0.127,-0.42 -0.127,-0.685c-0,-0.167 0.021,-0.331 0.064,-0.492c0.043,-0.162 0.101,-0.314 0.172,-0.457c0.072,-0.144 0.157,-0.276 0.254,-0.397c0.098,-0.121 0.201,-0.225 0.309,-0.312c0.108,-0.088 0.22,-0.156 0.336,-0.205c0.116,-0.05 0.228,-0.075 0.338,-0.075c0.19,0 0.347,0.03 0.47,0.09c0.124,0.06 0.222,0.134 0.295,0.223c0.073,0.088 0.125,0.183 0.155,0.283c0.03,0.1 0.044,0.191 0.044,0.272c0,0.078 -0.018,0.167 -0.056,0.267c-0.038,0.1 -0.1,0.195 -0.186,0.285c-0.086,0.09 -0.198,0.166 -0.336,0.227c-0.138,0.061 -0.307,0.092 -0.507,0.092c-0.107,-0 -0.203,-0.015 -0.288,-0.045c-0.084,-0.03 -0.159,-0.068 -0.224,-0.114c-0.065,-0.045 -0.121,-0.095 -0.166,-0.148c-0.046,-0.053 -0.084,-0.104 -0.115,-0.15c-0.047,0.161 -0.071,0.35 -0.071,0.566c0,0.148 0.022,0.282 0.065,0.4c0.043,0.119 0.102,0.22 0.177,0.303c0.076,0.083 0.166,0.147 0.27,0.192c0.104,0.044 0.219,0.066 0.344,0.066c0.156,-0 0.293,-0.027 0.41,-0.08c0.117,-0.053 0.219,-0.121 0.307,-0.201c0.087,-0.081 0.162,-0.169 0.226,-0.264c0.064,-0.095 0.119,-0.182 0.166,-0.262c0.047,-0.079 0.088,-0.145 0.123,-0.197c0.035,-0.052 0.07,-0.077 0.104,-0.074c0.015,-0 0.023,0.013 0.023,0.039c0,0.013 -0.001,0.026 -0.004,0.039c-0.002,0.013 -0.006,0.026 -0.012,0.039Zm-27.972,-3.285c-0,0.062 -0.001,0.142 -0.004,0.24c-0.003,0.098 -0.006,0.209 -0.01,0.334c-0.004,0.125 -0.008,0.26 -0.014,0.404c-0.005,0.145 -0.009,0.295 -0.011,0.452c0.075,-0.045 0.166,-0.088 0.271,-0.131c0.106,-0.043 0.216,-0.089 0.332,-0.139c0.116,-0.049 0.232,-0.103 0.348,-0.16c0.116,-0.057 0.222,-0.121 0.318,-0.192c0.237,-0.179 0.415,-0.343 0.534,-0.49c0.118,-0.147 0.177,-0.283 0.177,-0.408c0,-0.052 -0.008,-0.096 -0.025,-0.133c-0.017,-0.036 -0.037,-0.069 -0.061,-0.097c-0.06,-0.034 -0.149,-0.063 -0.267,-0.086c-0.119,-0.024 -0.264,-0.036 -0.436,-0.036c-0.161,0 -0.323,0.013 -0.486,0.038c-0.163,0.024 -0.32,0.056 -0.471,0.093c-0.151,0.038 -0.292,0.079 -0.424,0.123c-0.131,0.045 -0.248,0.086 -0.349,0.125c-0.102,0.039 -0.184,0.074 -0.246,0.104c-0.063,0.03 -0.101,0.047 -0.114,0.053c-0.013,0.005 -0.028,0.013 -0.045,0.025c-0.017,0.012 -0.033,0.018 -0.048,0.018c-0.034,-0 -0.058,-0.013 -0.071,-0.039c-0.013,-0.027 -0.017,-0.054 -0.011,-0.083c-0.021,-0.007 -0.038,-0.022 -0.051,-0.044c-0.013,-0.023 -0.024,-0.047 -0.031,-0.073c-0.008,-0.026 -0.013,-0.051 -0.016,-0.076c-0.003,-0.025 -0.004,-0.043 -0.004,-0.057c-0,-0.052 0.023,-0.098 0.068,-0.138c0.046,-0.041 0.105,-0.076 0.178,-0.108c0.018,-0.007 0.058,-0.026 0.119,-0.054c0.061,-0.029 0.14,-0.062 0.235,-0.1c0.095,-0.038 0.202,-0.077 0.322,-0.119c0.12,-0.042 0.247,-0.08 0.383,-0.115c0.135,-0.035 0.274,-0.065 0.418,-0.088c0.143,-0.024 0.285,-0.035 0.425,-0.035c0.102,0.002 0.21,0.008 0.325,0.017c0.114,0.009 0.228,0.028 0.339,0.057c0.112,0.029 0.217,0.069 0.315,0.121c0.098,0.052 0.18,0.122 0.248,0.211c0.073,0.057 0.137,0.135 0.193,0.232c0.056,0.098 0.084,0.216 0.084,0.354c0,0.096 -0.008,0.183 -0.025,0.26c-0.017,0.076 -0.032,0.13 -0.045,0.162c-0.068,0.169 -0.154,0.315 -0.26,0.437c-0.105,0.123 -0.218,0.227 -0.34,0.315c-0.121,0.087 -0.242,0.161 -0.365,0.22c-0.122,0.06 -0.233,0.11 -0.332,0.149c0.11,-0 0.222,0.005 0.338,0.015c0.116,0.011 0.231,0.03 0.344,0.057c0.113,0.027 0.222,0.067 0.326,0.119c0.104,0.052 0.2,0.119 0.289,0.199c0.057,0.063 0.109,0.131 0.156,0.204c0.039,0.062 0.075,0.136 0.108,0.22c0.032,0.085 0.049,0.177 0.049,0.276c0.015,0.062 0.023,0.134 0.023,0.215c-0,0.091 -0.008,0.192 -0.023,0.304c-0.013,0.099 -0.046,0.215 -0.098,0.348c-0.052,0.133 -0.133,0.269 -0.242,0.41c-0.11,0.141 -0.252,0.278 -0.428,0.412c-0.176,0.134 -0.395,0.251 -0.658,0.35c-0.164,0.065 -0.314,0.112 -0.449,0.14c-0.136,0.029 -0.258,0.043 -0.368,0.043c-0.052,0 -0.108,-0.005 -0.17,-0.015c-0.061,-0.011 -0.118,-0.026 -0.171,-0.045c-0.054,-0.02 -0.098,-0.044 -0.133,-0.072c-0.035,-0.029 -0.053,-0.063 -0.053,-0.102c-0,-0.021 -0.007,-0.036 -0.02,-0.045c-0.013,-0.009 -0.027,-0.02 -0.043,-0.033c-0.013,0.044 -0.028,0.079 -0.044,0.105c-0.017,0.026 -0.035,0.047 -0.053,0.063c-0.021,0.018 -0.042,0.031 -0.063,0.039c-0.01,-0 -0.019,-0.003 -0.027,-0.008c-0.016,-0.003 -0.027,-0.013 -0.035,-0.031c-0.011,0.021 -0.024,0.042 -0.041,0.064c-0.017,0.022 -0.033,0.033 -0.049,0.033c-0.008,0 -0.019,-0 -0.033,-0.001c-0.015,-0.002 -0.029,-0.019 -0.043,-0.053c-0.015,-0.034 -0.029,-0.092 -0.043,-0.174c-0.014,-0.082 -0.027,-0.206 -0.039,-0.371c-0.012,-0.166 -0.022,-0.38 -0.03,-0.643c-0.007,-0.263 -0.011,-0.591 -0.011,-0.984l-0,-0.502c-0,-0.176 0.001,-0.349 0.004,-0.52c0.002,-0.17 0.007,-0.334 0.013,-0.492c0.007,-0.157 0.016,-0.301 0.028,-0.429c0.011,-0.129 0.026,-0.237 0.045,-0.325c0.018,-0.087 0.041,-0.146 0.07,-0.177c0.021,-0.026 0.058,-0.051 0.111,-0.075c0.054,-0.023 0.106,-0.045 0.158,-0.064c0.053,-0.02 0.098,-0.035 0.137,-0.047c0.039,-0.012 0.056,-0.02 0.051,-0.025c0.013,0.005 0.024,0.013 0.033,0.025c0.009,0.012 0.014,0.028 0.014,0.049Zm24.906,1.64c0.008,0.016 0.012,0.032 0.014,0.047c0.001,0.016 0.002,0.034 0.002,0.055c-0,0.083 -0.044,0.171 -0.131,0.262c-0.087,0.091 -0.225,0.174 -0.412,0.25c-0.039,0.015 -0.074,0.023 -0.106,0.023c-0.039,0 -0.072,-0.011 -0.099,-0.033c-0.028,-0.022 -0.041,-0.045 -0.041,-0.068c-0,-0.016 0.009,-0.034 0.029,-0.055c0.019,-0.021 0.04,-0.042 0.062,-0.063c0.023,-0.02 0.043,-0.04 0.063,-0.058c0.019,-0.018 0.029,-0.033 0.029,-0.043c0,-0.021 -0.017,-0.031 -0.051,-0.031c-0.052,-0 -0.118,0.015 -0.199,0.045c-0.08,0.03 -0.166,0.069 -0.256,0.117c-0.089,0.048 -0.181,0.1 -0.273,0.156c-0.093,0.056 -0.175,0.111 -0.248,0.164c-0.073,0.053 -0.132,0.101 -0.178,0.143c-0.045,0.041 -0.068,0.071 -0.068,0.089c-0,0.011 0.01,0.016 0.031,0.016l0.113,0c0.071,0 0.161,0.004 0.272,0.012c0.11,0.008 0.227,0.023 0.349,0.045c0.123,0.022 0.246,0.053 0.37,0.094c0.123,0.04 0.234,0.094 0.332,0.162c0.097,0.067 0.177,0.149 0.24,0.246c0.062,0.096 0.094,0.211 0.094,0.343c-0,0.068 -0.011,0.14 -0.034,0.217c-0.022,0.077 -0.061,0.155 -0.117,0.235c-0.056,0.079 -0.132,0.16 -0.228,0.242c-0.097,0.082 -0.219,0.163 -0.368,0.244c-0.223,0.12 -0.432,0.208 -0.626,0.266c-0.194,0.057 -0.37,0.086 -0.526,0.086c-0.203,-0 -0.363,-0.046 -0.48,-0.137c-0.118,-0.091 -0.176,-0.222 -0.176,-0.391c-0,-0.125 0.024,-0.232 0.072,-0.32c0.048,-0.089 0.105,-0.162 0.17,-0.221c0.065,-0.058 0.13,-0.101 0.195,-0.129c0.066,-0.027 0.115,-0.042 0.149,-0.045c0.015,0 0.029,-0.001 0.041,-0.004c0.012,-0.002 0.024,-0.003 0.037,-0.003c0.023,-0 0.035,0.014 0.035,0.042l0,0.04c0,0.015 0.004,0.029 0.012,0.041c0.008,0.011 0.012,0.024 0.012,0.037c-0,0.015 -0.019,0.039 -0.057,0.07c-0.038,0.031 -0.079,0.068 -0.123,0.109c-0.044,0.042 -0.085,0.086 -0.123,0.133c-0.038,0.047 -0.057,0.093 -0.057,0.137c0,0.052 0.042,0.078 0.125,0.078c0.104,0 0.214,-0.02 0.33,-0.061c0.116,-0.04 0.229,-0.091 0.34,-0.154c0.111,-0.062 0.216,-0.133 0.317,-0.213c0.1,-0.079 0.188,-0.157 0.263,-0.232c0.076,-0.076 0.136,-0.147 0.18,-0.213c0.044,-0.066 0.066,-0.119 0.066,-0.158c0,-0.047 -0.026,-0.085 -0.08,-0.114c-0.053,-0.028 -0.126,-0.052 -0.219,-0.07c-0.092,-0.018 -0.199,-0.03 -0.322,-0.037c-0.122,-0.006 -0.251,-0.01 -0.387,-0.01c-0.14,0 -0.257,0.007 -0.349,0.02c-0.093,0.013 -0.149,0.019 -0.17,0.019c-0.016,0 -0.041,-0.002 -0.076,-0.005c-0.035,-0.004 -0.071,-0.016 -0.106,-0.036c-0.035,-0.019 -0.065,-0.048 -0.092,-0.088c-0.026,-0.039 -0.039,-0.095 -0.039,-0.168c0,-0.049 0.011,-0.105 0.034,-0.167c0.022,-0.063 0.061,-0.13 0.117,-0.202c0.056,-0.071 0.133,-0.149 0.23,-0.232c0.098,-0.083 0.222,-0.171 0.373,-0.262c0.159,-0.096 0.308,-0.175 0.448,-0.236c0.139,-0.061 0.265,-0.109 0.379,-0.143c0.113,-0.034 0.212,-0.056 0.298,-0.068c0.086,-0.012 0.154,-0.018 0.203,-0.018c0.118,0 0.205,0.015 0.262,0.045c0.057,0.03 0.1,0.083 0.129,0.158Zm10.488,1.422c0,0.274 -0.039,0.52 -0.119,0.739c-0.079,0.218 -0.187,0.405 -0.324,0.558c-0.137,0.154 -0.295,0.272 -0.475,0.356c-0.179,0.083 -0.369,0.125 -0.57,0.125c-0.083,-0 -0.174,-0.01 -0.273,-0.03c-0.099,-0.019 -0.198,-0.051 -0.297,-0.095c-0.099,-0.045 -0.196,-0.103 -0.289,-0.176c-0.094,-0.073 -0.177,-0.163 -0.25,-0.27c-0.073,-0.106 -0.131,-0.231 -0.174,-0.375c-0.043,-0.143 -0.063,-0.308 -0.061,-0.496c0,-0.213 0.026,-0.408 0.078,-0.584c0.053,-0.175 0.12,-0.333 0.202,-0.472c0.082,-0.14 0.175,-0.26 0.279,-0.362c0.104,-0.101 0.208,-0.187 0.312,-0.256c0.105,-0.069 0.205,-0.12 0.301,-0.154c0.097,-0.034 0.18,-0.053 0.25,-0.058c0.037,-0.003 0.053,0.001 0.049,0.011c-0.004,0.011 -0.014,0.022 -0.029,0.035c-0.016,0.013 -0.03,0.027 -0.041,0.04c-0.012,0.013 -0.007,0.02 0.013,0.023c0.019,0.005 0.034,0.01 0.045,0.016c0.012,0.005 0.024,0.011 0.037,0.019l0.032,-0.035c0.018,-0.013 0.035,-0.02 0.052,-0.02c0.017,0 0.032,0.002 0.045,0.006c0.013,0.004 0.024,0.006 0.032,0.006c0.007,0 0.013,-0.008 0.015,-0.023c0.005,-0.029 0.015,-0.045 0.03,-0.049c0.014,-0.004 0.047,-0.006 0.099,-0.006c0.031,0 0.079,0.009 0.143,0.027c0.063,0.019 0.134,0.05 0.211,0.094c0.076,0.044 0.155,0.104 0.234,0.178c0.079,0.074 0.152,0.168 0.219,0.281c0.066,0.113 0.12,0.248 0.162,0.404c0.042,0.157 0.062,0.338 0.062,0.543Zm-14.906,-3.289c-0.002,0.055 -0.01,0.137 -0.023,0.246c-0.013,0.11 -0.03,0.239 -0.049,0.389c-0.02,0.15 -0.04,0.316 -0.061,0.5c-0.021,0.184 -0.04,0.376 -0.058,0.578c-0.019,0.202 -0.033,0.409 -0.045,0.621c-0.012,0.213 -0.018,0.424 -0.018,0.635c0,0.109 0.003,0.233 0.008,0.371c0.005,0.138 0.011,0.278 0.018,0.42c0.006,0.142 0.013,0.281 0.021,0.418c0.008,0.137 0.014,0.26 0.02,0.369c0.005,0.11 0.007,0.199 0.007,0.27c0,0.07 -0.003,0.11 -0.011,0.121c-0.013,0.015 -0.03,0.023 -0.051,0.021c-0.021,-0.001 -0.042,-0.004 -0.063,-0.008c-0.02,-0.003 -0.041,-0.007 -0.06,-0.009c-0.02,-0.003 -0.033,0.001 -0.041,0.011c-0.005,0.013 -0.014,0.027 -0.027,0.041c-0.013,0.015 -0.028,0.028 -0.045,0.04c-0.017,0.011 -0.038,0.02 -0.061,0.025c-0.023,0.005 -0.048,0.003 -0.074,-0.008c-0.044,-0.026 -0.085,-0.063 -0.123,-0.111c-0.038,-0.048 -0.061,-0.11 -0.069,-0.186c-0.007,-0.052 -0.013,-0.113 -0.017,-0.183c-0.004,-0.071 -0.007,-0.147 -0.01,-0.229c-0.003,-0.082 -0.004,-0.167 -0.006,-0.254c-0.001,-0.087 -0.002,-0.172 -0.002,-0.256c-0.062,0.172 -0.136,0.327 -0.222,0.463c-0.086,0.137 -0.179,0.255 -0.28,0.354c-0.1,0.099 -0.205,0.179 -0.314,0.24c-0.11,0.061 -0.218,0.103 -0.324,0.127c-0.141,0.029 -0.287,0.027 -0.44,-0.006c-0.152,-0.032 -0.294,-0.087 -0.426,-0.164c-0.131,-0.077 -0.245,-0.172 -0.341,-0.285c-0.097,-0.113 -0.159,-0.239 -0.188,-0.377c-0.021,-0.096 -0.035,-0.19 -0.043,-0.281c-0.008,-0.091 -0.012,-0.179 -0.012,-0.262c0,-0.221 0.028,-0.422 0.082,-0.602c0.055,-0.179 0.125,-0.34 0.211,-0.482c0.086,-0.142 0.181,-0.265 0.284,-0.369c0.102,-0.104 0.202,-0.192 0.298,-0.262c0.097,-0.07 0.183,-0.124 0.258,-0.16c0.076,-0.037 0.13,-0.059 0.164,-0.066c0.063,-0.019 0.125,-0.03 0.188,-0.036c0.062,-0.005 0.122,-0.007 0.179,-0.007c0.115,-0 0.222,0.011 0.321,0.035c0.099,0.023 0.189,0.053 0.271,0.09c0.082,0.036 0.155,0.076 0.219,0.121c0.064,0.044 0.119,0.086 0.166,0.125c0.008,-0.157 0.016,-0.313 0.023,-0.469c0.008,-0.156 0.017,-0.305 0.026,-0.445c0.009,-0.141 0.018,-0.271 0.027,-0.391c0.009,-0.12 0.02,-0.221 0.033,-0.305c0.021,-0.14 0.041,-0.261 0.061,-0.363c0.02,-0.102 0.039,-0.189 0.059,-0.264c0.019,-0.074 0.039,-0.137 0.058,-0.189c0.02,-0.052 0.039,-0.098 0.057,-0.137c0.01,-0.01 0.028,-0.016 0.053,-0.017c0.024,-0.002 0.052,0.001 0.084,0.007c0.031,0.007 0.063,0.017 0.097,0.03c0.034,0.013 0.065,0.028 0.094,0.047c0.026,0.018 0.048,0.037 0.066,0.058c0.019,0.021 0.033,0.048 0.043,0.082c0.011,0.034 0.017,0.077 0.018,0.129c0.001,0.052 -0.002,0.119 -0.01,0.199Zm-14.777,4.914c-0,0.024 -0.02,0.052 -0.059,0.086c-0.039,0.034 -0.088,0.051 -0.148,0.051c-0.018,0 -0.052,-0.009 -0.1,-0.027c-0.048,-0.018 -0.098,-0.045 -0.15,-0.08c-0.052,-0.035 -0.099,-0.078 -0.141,-0.129c-0.042,-0.051 -0.064,-0.109 -0.066,-0.174c-0.005,-0.029 -0.008,-0.068 -0.008,-0.119l-0,-0.526c-0,-0.127 0.003,-0.256 0.008,-0.386c-0.019,0.093 -0.041,0.19 -0.067,0.291c-0.026,0.1 -0.058,0.2 -0.097,0.299c-0.039,0.098 -0.085,0.196 -0.137,0.292c-0.052,0.097 -0.112,0.189 -0.18,0.278c-0.036,0.047 -0.075,0.086 -0.115,0.119c-0.04,0.033 -0.08,0.06 -0.119,0.082c-0.039,0.022 -0.076,0.038 -0.11,0.049c-0.033,0.01 -0.059,0.015 -0.078,0.015c-0.01,0 -0.034,-0.011 -0.072,-0.033c-0.038,-0.022 -0.082,-0.051 -0.133,-0.086c-0.05,-0.035 -0.105,-0.074 -0.162,-0.117c-0.057,-0.043 -0.112,-0.086 -0.164,-0.129c-0.052,-0.043 -0.099,-0.083 -0.141,-0.121c-0.041,-0.038 -0.071,-0.068 -0.089,-0.092c-0.019,-0.026 -0.035,-0.07 -0.049,-0.132c-0.015,-0.063 -0.027,-0.14 -0.037,-0.231c-0.011,-0.091 -0.019,-0.194 -0.026,-0.309c-0.006,-0.114 -0.009,-0.237 -0.009,-0.367c-0,-0.07 0.001,-0.161 0.003,-0.273c0.003,-0.112 0.008,-0.233 0.016,-0.361c0.008,-0.129 0.018,-0.26 0.029,-0.391c0.012,-0.132 0.026,-0.25 0.043,-0.356c0.017,-0.105 0.037,-0.191 0.061,-0.257c0.023,-0.067 0.051,-0.1 0.082,-0.1c0.021,-0 0.057,0.006 0.109,0.018c0.052,0.011 0.106,0.017 0.16,0.017c0.081,0 0.138,-0.007 0.17,-0.021c0.033,-0.015 0.057,-0.022 0.073,-0.022c0.026,0 0.039,0.022 0.039,0.067l-0,0.037c-0,0.011 -0.003,0.025 -0.008,0.041c-0.003,0.015 -0.009,0.056 -0.018,0.121c-0.009,0.065 -0.02,0.148 -0.033,0.25c-0.013,0.101 -0.026,0.215 -0.039,0.342c-0.013,0.126 -0.025,0.258 -0.037,0.396c-0.012,0.138 -0.022,0.277 -0.029,0.418c-0.008,0.141 -0.012,0.275 -0.012,0.402c-0,0.086 0.002,0.172 0.006,0.258c0.004,0.086 0.011,0.164 0.021,0.235c0.011,0.07 0.025,0.127 0.043,0.17c0.018,0.042 0.041,0.064 0.067,0.064c0.023,-0 0.056,-0.011 0.099,-0.033c0.043,-0.022 0.094,-0.067 0.153,-0.135c0.058,-0.068 0.123,-0.164 0.193,-0.289c0.07,-0.125 0.146,-0.291 0.228,-0.498c0.083,-0.207 0.168,-0.461 0.258,-0.762c0.09,-0.301 0.182,-0.659 0.276,-1.076c-0,-0.008 0.004,-0.014 0.013,-0.018c0.009,-0.003 0.021,-0.005 0.034,-0.005c0.033,-0 0.076,0.003 0.128,0.009c0.053,0.007 0.103,0.016 0.151,0.028c0.048,0.011 0.09,0.025 0.125,0.041c0.035,0.015 0.053,0.032 0.053,0.05c-0,0.118 -0.006,0.245 -0.016,0.383c-0.01,0.138 -0.022,0.281 -0.035,0.428c-0.013,0.147 -0.025,0.298 -0.035,0.451c-0.011,0.154 -0.016,0.306 -0.016,0.457c0,0.271 0.008,0.53 0.025,0.776c0.017,0.246 0.04,0.457 0.069,0.634Zm35.39,-3.328c0.013,0.013 0.023,0.056 0.03,0.129c0.006,0.073 0.009,0.168 0.009,0.285c0,0.078 -0.001,0.163 -0.003,0.254c-0.003,0.091 -0.006,0.185 -0.01,0.281c-0.004,0.097 -0.009,0.194 -0.014,0.291c-0.005,0.098 -0.009,0.191 -0.012,0.28c-0.007,0.146 -0.012,0.28 -0.013,0.404c-0.002,0.124 -0.002,0.243 -0.002,0.357c-0,0.152 0.001,0.29 0.004,0.415c0.002,0.125 0.004,0.229 0.004,0.312c-0,0.091 -0.004,0.161 -0.01,0.209c-0.007,0.048 -0.02,0.075 -0.041,0.08c-0.024,0.005 -0.043,0.016 -0.059,0.033c-0.015,0.017 -0.03,0.034 -0.043,0.049c-0.013,0.016 -0.028,0.029 -0.045,0.041c-0.017,0.012 -0.037,0.015 -0.06,0.01c-0.013,-0.003 -0.035,-0.014 -0.067,-0.035c-0.031,-0.021 -0.064,-0.046 -0.099,-0.076c-0.035,-0.03 -0.069,-0.065 -0.1,-0.104c-0.031,-0.039 -0.052,-0.079 -0.062,-0.121c-0.006,-0.021 -0.01,-0.063 -0.014,-0.125c-0.004,-0.063 -0.007,-0.138 -0.01,-0.227c-0.002,-0.088 -0.005,-0.186 -0.008,-0.294c-0.002,-0.109 -0.004,-0.218 -0.005,-0.329c-0.002,-0.11 -0.002,-0.219 -0.002,-0.326l-0,-0.289c-0,-0.133 0.004,-0.268 0.013,-0.406c0.009,-0.138 0.02,-0.267 0.032,-0.387c0.011,-0.12 0.023,-0.224 0.035,-0.314c0.011,-0.09 0.02,-0.153 0.025,-0.19c0.01,-0.062 0.022,-0.111 0.033,-0.146c0.012,-0.035 0.025,-0.061 0.039,-0.076c0.015,-0.016 0.029,-0.026 0.043,-0.03c0.015,-0.004 0.03,-0.007 0.045,-0.009c0.031,-0.006 0.067,-0.007 0.108,-0.004c0.04,0.002 0.078,0.006 0.115,0.011c0.036,0.006 0.068,0.013 0.096,0.022c0.027,0.009 0.043,0.017 0.048,0.025Zm3.071,3.184c-0,0.031 -0.011,0.066 -0.033,0.103c-0.023,0.038 -0.055,0.057 -0.096,0.057c-0.024,-0 -0.042,-0.007 -0.055,-0.02c-0.013,-0.013 -0.026,-0.019 -0.039,-0.019c-0.018,-0 -0.036,0.006 -0.053,0.019c-0.017,0.013 -0.045,0.02 -0.084,0.02c-0.052,-0 -0.097,-0.019 -0.134,-0.057c-0.038,-0.037 -0.069,-0.086 -0.092,-0.144c-0.024,-0.059 -0.041,-0.123 -0.053,-0.192c-0.012,-0.069 -0.018,-0.133 -0.018,-0.193c0,-0.117 0.005,-0.251 0.014,-0.4c0.009,-0.15 0.02,-0.304 0.031,-0.461c0.012,-0.158 0.023,-0.315 0.032,-0.471c0.009,-0.156 0.013,-0.301 0.013,-0.434c0,-0.177 -0.011,-0.315 -0.035,-0.414c-0.023,-0.099 -0.065,-0.148 -0.125,-0.148c-0.057,0.008 -0.116,0.057 -0.176,0.148c-0.06,0.092 -0.121,0.208 -0.183,0.35c-0.063,0.142 -0.124,0.302 -0.184,0.48c-0.06,0.179 -0.118,0.361 -0.174,0.547c-0.056,0.187 -0.108,0.368 -0.158,0.543c-0.049,0.176 -0.094,0.333 -0.133,0.471c-0.039,0.138 -0.073,0.249 -0.101,0.334c-0.029,0.085 -0.048,0.127 -0.059,0.127c-0.021,-0 -0.036,-0.005 -0.047,-0.014c-0.01,-0.009 -0.02,-0.019 -0.029,-0.029c-0.009,-0.01 -0.02,-0.02 -0.033,-0.029c-0.013,-0.009 -0.033,-0.014 -0.059,-0.014c-0.023,-0 -0.039,0.003 -0.047,0.008c-0.007,0.005 -0.017,0.012 -0.027,0.019c-0.01,0.008 -0.023,0.015 -0.039,0.02c-0.016,0.005 -0.043,0.008 -0.082,0.008c-0.047,-0 -0.093,-0.012 -0.139,-0.035c-0.045,-0.024 -0.068,-0.06 -0.068,-0.11c-0,-0.031 0.005,-0.096 0.015,-0.193c0.011,-0.098 0.023,-0.218 0.038,-0.36c0.014,-0.142 0.03,-0.3 0.046,-0.476c0.017,-0.176 0.033,-0.358 0.047,-0.545c0.015,-0.188 0.027,-0.375 0.037,-0.563c0.011,-0.187 0.016,-0.365 0.016,-0.535l-0.008,-0.437c0,-0.016 0.008,-0.024 0.024,-0.024c0.031,0 0.055,0.006 0.072,0.018c0.017,0.012 0.029,0.024 0.037,0.037c0.008,0.013 0.012,0.025 0.014,0.037c0.001,0.012 0.003,0.018 0.006,0.018c0.007,-0 0.017,-0.005 0.027,-0.014l0.066,-0.059c0.011,-0.009 0.02,-0.013 0.028,-0.013l0.039,-0c0.039,-0 0.066,-0.006 0.082,-0.018c0.015,-0.012 0.026,-0.025 0.033,-0.039c0.007,-0.014 0.011,-0.027 0.014,-0.039c0.002,-0.012 0.01,-0.018 0.023,-0.018c0.008,0 0.019,0.006 0.033,0.018c0.015,0.012 0.029,0.031 0.043,0.059c0.015,0.027 0.027,0.063 0.037,0.107c0.011,0.044 0.016,0.098 0.016,0.16c0,0.084 -0.003,0.189 -0.01,0.317l-0.049,0.845c-0.007,0.147 -0.013,0.281 -0.015,0.401c0.028,-0.112 0.063,-0.237 0.103,-0.373c0.041,-0.137 0.088,-0.276 0.141,-0.416c0.053,-0.141 0.111,-0.278 0.174,-0.412c0.062,-0.135 0.13,-0.254 0.203,-0.358c0.073,-0.104 0.15,-0.188 0.23,-0.252c0.081,-0.064 0.166,-0.096 0.254,-0.096c0.141,0 0.256,0.027 0.346,0.079c0.09,0.052 0.161,0.123 0.213,0.214c0.052,0.092 0.088,0.198 0.107,0.321c0.02,0.122 0.03,0.254 0.03,0.394c-0,0.12 -0.006,0.246 -0.016,0.377c-0.01,0.132 -0.022,0.263 -0.033,0.395c-0.012,0.131 -0.022,0.261 -0.031,0.388c-0.01,0.128 -0.014,0.248 -0.014,0.36c-0,0.138 0.008,0.262 0.023,0.373c0.016,0.111 0.024,0.195 0.024,0.252Zm-5.825,-0c0,0.031 -0.011,0.066 -0.033,0.103c-0.022,0.038 -0.054,0.057 -0.095,0.057c-0.024,-0 -0.042,-0.007 -0.055,-0.02c-0.013,-0.013 -0.026,-0.019 -0.039,-0.019c-0.018,-0 -0.036,0.006 -0.053,0.019c-0.017,0.013 -0.045,0.02 -0.084,0.02c-0.052,-0 -0.097,-0.019 -0.135,-0.057c-0.037,-0.037 -0.068,-0.086 -0.091,-0.144c-0.024,-0.059 -0.041,-0.123 -0.053,-0.192c-0.012,-0.069 -0.018,-0.133 -0.018,-0.193c0,-0.117 0.005,-0.251 0.014,-0.4c0.009,-0.15 0.019,-0.304 0.031,-0.461c0.012,-0.158 0.022,-0.315 0.031,-0.471c0.01,-0.156 0.014,-0.301 0.014,-0.434c0,-0.177 -0.012,-0.315 -0.035,-0.414c-0.024,-0.099 -0.065,-0.148 -0.125,-0.148c-0.057,0.008 -0.116,0.057 -0.176,0.148c-0.06,0.092 -0.121,0.208 -0.183,0.35c-0.063,0.142 -0.124,0.302 -0.184,0.48c-0.06,0.179 -0.118,0.361 -0.174,0.547c-0.056,0.187 -0.109,0.368 -0.158,0.543c-0.05,0.176 -0.094,0.333 -0.133,0.471c-0.039,0.138 -0.073,0.249 -0.101,0.334c-0.029,0.085 -0.049,0.127 -0.059,0.127c-0.021,-0 -0.036,-0.005 -0.047,-0.014c-0.01,-0.009 -0.02,-0.019 -0.029,-0.029c-0.009,-0.01 -0.02,-0.02 -0.033,-0.029c-0.013,-0.009 -0.033,-0.014 -0.059,-0.014c-0.023,-0 -0.039,0.003 -0.047,0.008c-0.008,0.005 -0.017,0.012 -0.027,0.019c-0.011,0.008 -0.024,0.015 -0.039,0.02c-0.016,0.005 -0.043,0.008 -0.082,0.008c-0.047,-0 -0.093,-0.012 -0.139,-0.035c-0.046,-0.024 -0.068,-0.06 -0.068,-0.11c-0,-0.031 0.005,-0.096 0.015,-0.193c0.011,-0.098 0.023,-0.218 0.037,-0.36c0.015,-0.142 0.03,-0.3 0.047,-0.476c0.017,-0.176 0.033,-0.358 0.047,-0.545c0.014,-0.188 0.027,-0.375 0.037,-0.563c0.011,-0.187 0.016,-0.365 0.016,-0.535l-0.008,-0.437c0,-0.016 0.008,-0.024 0.023,-0.024c0.032,0 0.056,0.006 0.073,0.018c0.017,0.012 0.029,0.024 0.037,0.037c0.008,0.013 0.012,0.025 0.014,0.037c0.001,0.012 0.003,0.018 0.005,0.018c0.008,-0 0.017,-0.005 0.028,-0.014l0.066,-0.059c0.011,-0.009 0.02,-0.013 0.027,-0.013l0.04,-0c0.039,-0 0.066,-0.006 0.082,-0.018c0.015,-0.012 0.026,-0.025 0.033,-0.039c0.006,-0.014 0.011,-0.027 0.013,-0.039c0.003,-0.012 0.011,-0.018 0.024,-0.018c0.008,0 0.019,0.006 0.033,0.018c0.014,0.012 0.029,0.031 0.043,0.059c0.014,0.027 0.027,0.063 0.037,0.107c0.011,0.044 0.016,0.098 0.016,0.16c-0,0.084 -0.003,0.189 -0.01,0.317l-0.049,0.845c-0.008,0.147 -0.013,0.281 -0.015,0.401c0.028,-0.112 0.063,-0.237 0.103,-0.373c0.04,-0.137 0.087,-0.276 0.141,-0.416c0.053,-0.141 0.111,-0.278 0.174,-0.412c0.062,-0.135 0.13,-0.254 0.203,-0.358c0.073,-0.104 0.149,-0.188 0.23,-0.252c0.081,-0.064 0.166,-0.096 0.254,-0.096c0.141,0 0.256,0.027 0.346,0.079c0.09,0.052 0.161,0.123 0.213,0.214c0.052,0.092 0.088,0.198 0.107,0.321c0.02,0.122 0.029,0.254 0.029,0.394c0,0.12 -0.005,0.246 -0.015,0.377c-0.011,0.132 -0.022,0.263 -0.033,0.395c-0.012,0.131 -0.023,0.261 -0.032,0.388c-0.009,0.128 -0.013,0.248 -0.013,0.36c-0,0.138 0.007,0.262 0.023,0.373c0.016,0.111 0.023,0.195 0.023,0.252Zm-21.882,-0c-0,0.031 -0.011,0.066 -0.034,0.103c-0.022,0.038 -0.054,0.057 -0.095,0.057c-0.024,-0 -0.042,-0.007 -0.055,-0.02c-0.013,-0.013 -0.026,-0.019 -0.039,-0.019c-0.018,-0 -0.036,0.006 -0.053,0.019c-0.017,0.013 -0.045,0.02 -0.084,0.02c-0.052,-0 -0.097,-0.019 -0.134,-0.057c-0.038,-0.037 -0.069,-0.086 -0.092,-0.144c-0.024,-0.059 -0.041,-0.123 -0.053,-0.192c-0.012,-0.069 -0.018,-0.133 -0.018,-0.193c0,-0.117 0.005,-0.251 0.014,-0.4c0.009,-0.15 0.02,-0.304 0.031,-0.461c0.012,-0.158 0.022,-0.315 0.032,-0.471c0.009,-0.156 0.013,-0.301 0.013,-0.434c0,-0.177 -0.011,-0.315 -0.035,-0.414c-0.023,-0.099 -0.065,-0.148 -0.125,-0.148c-0.057,0.008 -0.116,0.057 -0.176,0.148c-0.06,0.092 -0.121,0.208 -0.183,0.35c-0.063,0.142 -0.124,0.302 -0.184,0.48c-0.06,0.179 -0.118,0.361 -0.174,0.547c-0.056,0.187 -0.108,0.368 -0.158,0.543c-0.049,0.176 -0.094,0.333 -0.133,0.471c-0.039,0.138 -0.073,0.249 -0.101,0.334c-0.029,0.085 -0.048,0.127 -0.059,0.127c-0.021,-0 -0.036,-0.005 -0.047,-0.014c-0.01,-0.009 -0.02,-0.019 -0.029,-0.029c-0.009,-0.01 -0.02,-0.02 -0.033,-0.029c-0.013,-0.009 -0.033,-0.014 -0.059,-0.014c-0.023,-0 -0.039,0.003 -0.047,0.008c-0.008,0.005 -0.017,0.012 -0.027,0.019c-0.01,0.008 -0.023,0.015 -0.039,0.02c-0.016,0.005 -0.043,0.008 -0.082,0.008c-0.047,-0 -0.093,-0.012 -0.139,-0.035c-0.045,-0.024 -0.068,-0.06 -0.068,-0.11c-0,-0.031 0.005,-0.096 0.015,-0.193c0.011,-0.098 0.023,-0.218 0.038,-0.36c0.014,-0.142 0.03,-0.3 0.046,-0.476c0.017,-0.176 0.033,-0.358 0.047,-0.545c0.015,-0.188 0.027,-0.375 0.037,-0.563c0.011,-0.187 0.016,-0.365 0.016,-0.535l-0.008,-0.437c0,-0.016 0.008,-0.024 0.024,-0.024c0.031,0 0.055,0.006 0.072,0.018c0.017,0.012 0.029,0.024 0.037,0.037c0.008,0.013 0.012,0.025 0.014,0.037c0.001,0.012 0.003,0.018 0.006,0.018c0.007,-0 0.017,-0.005 0.027,-0.014l0.066,-0.059c0.011,-0.009 0.02,-0.013 0.028,-0.013l0.039,-0c0.039,-0 0.066,-0.006 0.082,-0.018c0.015,-0.012 0.026,-0.025 0.033,-0.039c0.006,-0.014 0.011,-0.027 0.014,-0.039c0.002,-0.012 0.01,-0.018 0.023,-0.018c0.008,0 0.019,0.006 0.033,0.018c0.015,0.012 0.029,0.031 0.043,0.059c0.015,0.027 0.027,0.063 0.037,0.107c0.011,0.044 0.016,0.098 0.016,0.16c-0,0.084 -0.003,0.189 -0.01,0.317l-0.049,0.845c-0.007,0.147 -0.013,0.281 -0.015,0.401c0.028,-0.112 0.063,-0.237 0.103,-0.373c0.041,-0.137 0.088,-0.276 0.141,-0.416c0.053,-0.141 0.111,-0.278 0.174,-0.412c0.062,-0.135 0.13,-0.254 0.203,-0.358c0.073,-0.104 0.15,-0.188 0.23,-0.252c0.081,-0.064 0.166,-0.096 0.254,-0.096c0.141,0 0.256,0.027 0.346,0.079c0.09,0.052 0.161,0.123 0.213,0.214c0.052,0.092 0.088,0.198 0.107,0.321c0.02,0.122 0.03,0.254 0.03,0.394c-0,0.12 -0.006,0.246 -0.016,0.377c-0.01,0.132 -0.022,0.263 -0.033,0.395c-0.012,0.131 -0.022,0.261 -0.032,0.388c-0.009,0.128 -0.013,0.248 -0.013,0.36c-0,0.138 0.008,0.262 0.023,0.373c0.016,0.111 0.024,0.195 0.024,0.252Zm-3.731,-1.426c-0.078,0.029 -0.164,0.066 -0.258,0.113c-0.093,0.047 -0.188,0.103 -0.285,0.166c-0.096,0.064 -0.192,0.138 -0.289,0.221c-0.096,0.083 -0.186,0.176 -0.269,0.277c-0.099,0.118 -0.171,0.222 -0.215,0.313c-0.044,0.091 -0.072,0.169 -0.082,0.232c-0.011,0.064 -0.008,0.114 0.008,0.151c0.015,0.036 0.033,0.058 0.054,0.066c0.081,0.031 0.165,0.035 0.252,0.01c0.087,-0.025 0.175,-0.069 0.262,-0.133c0.087,-0.064 0.172,-0.141 0.254,-0.23c0.082,-0.09 0.159,-0.183 0.232,-0.278c0.073,-0.095 0.138,-0.189 0.196,-0.281c0.057,-0.092 0.104,-0.173 0.14,-0.24l0,-0.387Zm21.25,-1.199c-0.091,0.055 -0.181,0.129 -0.269,0.222c-0.089,0.094 -0.169,0.202 -0.241,0.325c-0.071,0.122 -0.129,0.259 -0.173,0.41c-0.045,0.151 -0.067,0.31 -0.067,0.476c0,0.18 0.016,0.343 0.049,0.489c0.033,0.146 0.08,0.27 0.143,0.373c0.062,0.103 0.138,0.182 0.228,0.238c0.09,0.056 0.192,0.084 0.307,0.084c0.101,0 0.202,-0.029 0.303,-0.086c0.1,-0.057 0.189,-0.143 0.267,-0.258c0.078,-0.114 0.141,-0.256 0.19,-0.426c0.048,-0.169 0.072,-0.365 0.072,-0.589c-0,-0.227 -0.03,-0.417 -0.09,-0.571c-0.06,-0.153 -0.127,-0.278 -0.201,-0.373c-0.074,-0.095 -0.145,-0.162 -0.213,-0.203c-0.068,-0.04 -0.109,-0.06 -0.125,-0.06l-0.084,-0c-0.02,-0 -0.052,-0.017 -0.096,-0.051Zm-33.847,0.097c-0.019,0 -0.045,-0.01 -0.081,-0.031c-0.035,-0.021 -0.073,-0.045 -0.115,-0.074c-0.008,0.219 -0.015,0.438 -0.023,0.656c-0.008,0.219 -0.016,0.427 -0.024,0.623c-0.007,0.197 -0.013,0.379 -0.017,0.545c-0.004,0.167 -0.006,0.306 -0.006,0.418c0.031,-0.049 0.065,-0.097 0.101,-0.142c0.037,-0.046 0.073,-0.086 0.108,-0.121c0.035,-0.036 0.068,-0.064 0.098,-0.084c0.03,-0.021 0.052,-0.032 0.068,-0.032c0.005,0 0.01,0.002 0.016,0.004c0.005,0.003 0.016,0.013 0.035,0.031c0.005,0 0.01,-0.001 0.015,-0.003c0.006,-0.003 0.011,-0.004 0.016,-0.004c0.021,-0 0.036,0.009 0.047,0.027c0.01,0.018 0.015,0.053 0.015,0.105c0,0.029 -0.007,0.054 -0.023,0.075c-0.016,0.021 -0.033,0.039 -0.053,0.056c-0.019,0.017 -0.039,0.034 -0.058,0.049c-0.02,0.016 -0.034,0.031 -0.041,0.047c0.021,0.005 0.041,0.009 0.062,0.012c0.021,0.002 0.054,0.004 0.098,0.004c0.023,-0.003 0.071,-0.008 0.142,-0.014c0.072,-0.007 0.164,-0.026 0.276,-0.059c0.112,-0.032 0.241,-0.084 0.388,-0.154c0.148,-0.07 0.308,-0.17 0.483,-0.301c0.148,-0.112 0.268,-0.226 0.359,-0.343c0.091,-0.118 0.161,-0.228 0.209,-0.331c0.048,-0.102 0.08,-0.193 0.096,-0.271c0.016,-0.078 0.023,-0.134 0.023,-0.168c-0.01,-0.096 -0.051,-0.184 -0.123,-0.264c-0.071,-0.079 -0.166,-0.147 -0.285,-0.205c-0.118,-0.057 -0.257,-0.101 -0.416,-0.133c-0.159,-0.031 -0.329,-0.046 -0.512,-0.046c-0.122,-0 -0.23,0.006 -0.324,0.019c-0.094,0.013 -0.176,0.028 -0.248,0.045c-0.071,0.017 -0.132,0.032 -0.181,0.045c-0.05,0.013 -0.092,0.019 -0.125,0.019Zm19.503,0.336c0,-0.033 0.002,-0.071 0.004,-0.111c0.003,-0.04 0.007,-0.079 0.012,-0.115c-0.021,0.018 -0.04,0.034 -0.057,0.049c-0.016,0.014 -0.029,0.028 -0.037,0.041c-0.057,0.065 -0.096,0.101 -0.117,0.107c-0.021,0.007 -0.043,-0.002 -0.066,-0.025c-0.177,-0.177 -0.347,-0.298 -0.51,-0.362c-0.163,-0.063 -0.311,-0.095 -0.443,-0.095c-0.089,-0 -0.166,0.009 -0.233,0.029c-0.066,0.02 -0.119,0.041 -0.158,0.064c-0.07,0.042 -0.134,0.105 -0.191,0.19c-0.058,0.085 -0.107,0.182 -0.147,0.291c-0.04,0.109 -0.072,0.227 -0.094,0.353c-0.022,0.127 -0.033,0.252 -0.033,0.377c0,0.133 0.014,0.261 0.041,0.383c0.028,0.123 0.071,0.231 0.131,0.324c0.06,0.094 0.138,0.168 0.234,0.221c0.097,0.054 0.214,0.078 0.352,0.072c0.151,-0.007 0.288,-0.044 0.412,-0.109c0.124,-0.065 0.234,-0.148 0.332,-0.25c0.098,-0.102 0.182,-0.216 0.252,-0.344c0.07,-0.127 0.129,-0.256 0.176,-0.386c0.047,-0.131 0.082,-0.257 0.105,-0.379c0.024,-0.123 0.035,-0.231 0.035,-0.325Zm-45.865,-5.433c-3.184,0.672 -6.471,1.246 -8.863,1.365c-1.271,0.99 -1.648,2.793 -0.815,4.224c0.88,1.513 2.79,2.058 4.328,1.262c1.087,-1.87 3.181,-4.419 5.35,-6.851Zm9.884,0.006c2.17,2.419 4.263,4.951 5.352,6.812c1.541,0.79 3.449,0.24 4.325,-1.276c0.814,-1.411 0.457,-3.178 -0.768,-4.173c-2.391,-0.111 -5.702,-0.686 -8.909,-1.363Zm-7.33,-0.532c-0.616,0.171 -1.107,0.304 -1.432,0.391c-1.843,2.037 -3.686,4.205 -4.951,6.013c1.804,-1.271 3.966,-3.121 5.997,-4.971c0.086,-0.325 0.217,-0.816 0.386,-1.433Zm4.754,-0.008c0.171,0.617 0.304,1.108 0.391,1.433c2.037,1.842 4.205,3.685 6.013,4.951c-1.271,-1.804 -3.121,-3.966 -4.971,-5.997c-0.325,-0.086 -0.816,-0.218 -1.433,-0.387Zm45.714,5.448c-0.047,-0 -0.108,0.01 -0.182,0.029c-0.074,0.02 -0.152,0.054 -0.234,0.104c-0.082,0.049 -0.164,0.116 -0.244,0.201c-0.081,0.085 -0.151,0.192 -0.211,0.322c0.036,-0.018 0.068,-0.034 0.095,-0.047c0.028,-0.013 0.047,-0.019 0.057,-0.019c0.005,-0 0.013,0.005 0.023,0.015c0.06,0.102 0.135,0.174 0.225,0.217c0.09,0.043 0.191,0.065 0.303,0.065c0.088,-0 0.164,-0.015 0.228,-0.045c0.064,-0.03 0.117,-0.069 0.158,-0.116c0.042,-0.046 0.072,-0.098 0.09,-0.154c0.019,-0.056 0.028,-0.111 0.028,-0.166c-0,-0.117 -0.03,-0.214 -0.09,-0.291c-0.06,-0.077 -0.142,-0.115 -0.246,-0.115Zm19.472,-0c-0.047,-0 -0.107,0.01 -0.181,0.029c-0.074,0.02 -0.153,0.054 -0.235,0.104c-0.082,0.049 -0.163,0.116 -0.244,0.201c-0.081,0.085 -0.151,0.192 -0.211,0.322c0.037,-0.018 0.069,-0.034 0.096,-0.047c0.027,-0.013 0.046,-0.019 0.057,-0.019c0.005,-0 0.013,0.005 0.023,0.015c0.06,0.102 0.135,0.174 0.225,0.217c0.09,0.043 0.19,0.065 0.302,0.065c0.089,-0 0.165,-0.015 0.229,-0.045c0.064,-0.03 0.116,-0.069 0.158,-0.116c0.042,-0.046 0.072,-0.098 0.09,-0.154c0.018,-0.056 0.027,-0.111 0.027,-0.166c0,-0.117 -0.03,-0.214 -0.09,-0.291c-0.059,-0.077 -0.141,-0.115 -0.246,-0.115Zm-4.847,-2.219c0.002,0.052 0,0.11 -0.006,0.174c-0.007,0.064 -0.017,0.126 -0.031,0.186c-0.015,0.059 -0.034,0.113 -0.059,0.16c-0.025,0.047 -0.054,0.079 -0.088,0.097c-0.086,0.045 -0.161,0.067 -0.226,0.067c-0.053,-0 -0.097,-0.013 -0.135,-0.037c-0.038,-0.025 -0.075,-0.053 -0.112,-0.084c-0.052,-0.042 -0.095,-0.097 -0.13,-0.164c-0.036,-0.068 -0.053,-0.133 -0.053,-0.196c-0,-0.049 0.008,-0.11 0.025,-0.181c0.017,-0.072 0.039,-0.142 0.065,-0.209c0.026,-0.068 0.054,-0.13 0.084,-0.186c0.03,-0.056 0.059,-0.094 0.088,-0.115c0.044,-0.037 0.085,-0.057 0.123,-0.061c0.037,-0.004 0.068,-0.002 0.091,0.006c0.058,0.013 0.109,0.029 0.153,0.049c0.044,0.02 0.081,0.049 0.111,0.09c0.03,0.04 0.053,0.093 0.068,0.158c0.016,0.065 0.027,0.147 0.032,0.246Zm-42.637,-3.412c0.012,-0.095 0.142,-0.977 0.391,-2.646c0.52,-3.479 0.781,-6.634 0.781,-9.462c-0,-0.935 -0.083,-1.598 -0.249,-1.989c1.267,0.332 2.06,0.852 2.379,1.563c0.912,-0.509 1.876,-0.764 2.894,-0.764c1.018,0 1.849,0.287 2.494,0.861c0.645,0.574 0.968,1.273 0.968,2.095c-0,0.823 -0.296,1.586 -0.888,2.29c-0.592,0.705 -1.402,1.228 -2.432,1.572c0.829,0.177 1.589,0.577 2.281,1.198c0.693,0.621 1.039,1.388 1.039,2.299c-0,1.397 -0.518,2.471 -1.554,3.222c-1.035,0.752 -2.343,1.128 -3.923,1.128c-1.58,-0 -2.974,-0.456 -4.181,-1.367Zm-5.951,1.346c0.177,0.006 0.35,0.009 0.516,0.009c1.956,0 3.545,-1.588 3.545,-3.545c-0,-1.956 -1.589,-3.544 -3.545,-3.544c-0.191,-0 -0.39,0.003 -0.597,0.011c-0.081,0.056 -0.165,0.108 -0.251,0.158c-1.86,1.083 -4.94,2.254 -8.034,3.288c0.007,0.028 0.01,0.057 0.01,0.087c0,0.024 -0.002,0.048 -0.006,0.07c3.095,1.023 6.177,2.185 8.041,3.261c0.111,0.064 0.218,0.132 0.321,0.205Zm-28.263,-7.072c-0.178,-0.005 -0.35,-0.008 -0.516,-0.008c-1.957,-0 -3.545,1.588 -3.545,3.544c-0,1.957 1.588,3.545 3.545,3.545c0.191,0 0.39,-0.004 0.597,-0.012c0.081,-0.055 0.164,-0.108 0.25,-0.158c1.861,-1.082 4.941,-2.253 8.035,-3.287c-0.007,-0.028 -0.011,-0.058 -0.011,-0.088c0,-0.023 0.002,-0.047 0.007,-0.07c-3.095,-1.023 -6.178,-2.184 -8.042,-3.26c-0.111,-0.064 -0.218,-0.133 -0.32,-0.206Zm57.223,-3.577c0.355,-0.024 0.603,-0.036 0.745,-0.036c0.616,0 1.083,0.113 1.403,0.338c0.319,0.224 0.479,0.639 0.479,1.242c0,0.19 -0.112,1.021 -0.337,2.495c-0.225,1.473 -0.337,2.737 -0.337,3.79c-0,1.053 0.112,1.983 0.337,2.787c-0.888,-0.284 -1.503,-0.686 -1.847,-1.207c-0.343,-0.521 -0.514,-1.166 -0.514,-1.935c-0,-0.296 0.065,-0.965 0.195,-2.006c-0.367,1.349 -0.926,2.482 -1.678,3.4c-0.751,0.917 -1.459,1.376 -2.121,1.376c-1.361,-0 -2.042,-0.983 -2.042,-2.947c-0,-0.651 0.098,-1.56 0.293,-2.726c0.195,-1.165 0.293,-2.05 0.293,-2.654c-0,-0.603 -0.083,-1.213 -0.249,-1.828c0.983,-0 1.696,0.127 2.14,0.381c0.443,0.255 0.665,0.761 0.665,1.518c0,0.403 -0.124,1.202 -0.372,2.397c-0.249,1.195 -0.373,2.095 -0.373,2.698c-0,0.876 0.236,1.314 0.71,1.314c0.237,0 0.509,-0.163 0.817,-0.488c0.307,-0.325 0.603,-0.757 0.887,-1.296c0.284,-0.539 0.524,-1.213 0.719,-2.024c0.195,-0.811 0.293,-1.633 0.293,-2.468c0,-0.834 -0.035,-1.541 -0.106,-2.121Zm26.843,4.314l-1.704,-0.018c-0.486,0 -0.858,0.006 -1.119,0.018c-0.189,1.657 -0.284,3 -0.284,4.03c0,1.03 0.036,1.752 0.107,2.166c-0.379,0.024 -0.628,0.035 -0.746,0.035c-0.675,0 -1.16,-0.118 -1.456,-0.355c-0.296,-0.236 -0.444,-0.654 -0.444,-1.251c0,-0.598 0.166,-2.033 0.497,-4.306c-0.378,0.119 -0.656,0.219 -0.834,0.302c-0.024,-0.26 -0.035,-0.455 -0.035,-0.586c-0,-0.816 0.372,-1.325 1.118,-1.526c0.225,-1.622 0.361,-3.024 0.408,-4.208c-0.603,0 -0.985,-0.083 -1.145,-0.249c-0.16,-0.165 -0.239,-0.532 -0.239,-1.1c0.047,-0.533 0.094,-0.882 0.142,-1.048c1.337,0.178 2.805,0.267 4.402,0.267c1.598,-0 3.143,-0.142 4.634,-0.427c-0.166,1.243 -0.923,1.989 -2.272,2.237c-0.734,0.142 -1.782,0.237 -3.143,0.285c-0.012,0.153 -0.183,1.532 -0.515,4.136c0.687,0.024 1.154,0.036 1.403,0.036c1.124,-0 1.923,-0.196 2.397,-0.586c0.023,0.236 0.035,0.414 0.035,0.532c0,1.077 -0.402,1.616 -1.207,1.616Zm-65.106,3.345c-0.373,0.1 -0.887,0.238 -1.512,0.401c0.497,0.491 0.872,0.868 1.089,1.087c2.739,0.594 5.607,1.13 7.942,1.373c-1.996,-0.971 -4.786,-1.977 -7.519,-2.861Zm68.586,2.141c-0.142,-0.237 -0.231,-0.465 -0.267,-0.684c-0.035,-0.219 -0.053,-0.559 -0.053,-1.021c0,-0.461 0.198,-2.278 0.595,-5.45c0.396,-3.172 0.595,-5.35 0.595,-6.533c-0,-1.184 -0.071,-1.953 -0.213,-2.308c0.887,0.237 1.494,0.595 1.819,1.074c0.326,0.479 0.489,1.157 0.489,2.033c-0,0.52 -0.172,2.213 -0.515,5.077c-0.344,2.864 -0.515,5.172 -0.515,6.924c-0,0.379 0.024,0.911 0.071,1.598c-1.077,-0.047 -1.746,-0.284 -2.006,-0.71Zm-41.1,-0c-0.142,-0.237 -0.231,-0.465 -0.266,-0.684c-0.036,-0.219 -0.053,-0.559 -0.053,-1.021c-0,-0.461 0.198,-2.278 0.594,-5.45c0.397,-3.172 0.595,-5.35 0.595,-6.533c0,-1.184 -0.071,-1.953 -0.213,-2.308c0.888,0.237 1.494,0.595 1.82,1.074c0.325,0.479 0.488,1.157 0.488,2.033c0,0.52 -0.172,2.213 -0.515,5.077c-0.343,2.864 -0.515,5.172 -0.515,6.924c0,0.379 0.024,0.911 0.071,1.598c-1.077,-0.047 -1.745,-0.284 -2.006,-0.71Zm49.799,-10.049c0.13,0 0.251,0.039 0.364,0.116c0.112,0.077 0.169,0.156 0.169,0.239c-1.196,0.829 -1.912,1.983 -2.149,3.462c0.249,-0.663 0.554,-1.237 0.915,-1.722c0.361,-0.485 0.736,-0.852 1.127,-1.101c0.746,-0.461 1.474,-0.692 2.184,-0.692c0.71,0 1.313,0.349 1.811,1.048c0.497,0.698 0.745,1.633 0.745,2.805c0,1.313 -0.266,2.521 -0.799,3.621c-0.591,1.243 -1.432,2.101 -2.521,2.575c-0.615,0.272 -1.29,0.408 -2.024,0.408c-1.029,-0 -1.926,-0.4 -2.689,-1.198c-0.764,-0.799 -1.145,-1.947 -1.145,-3.445c-0,-1.497 0.367,-2.817 1.1,-3.959c0.734,-1.142 1.705,-1.861 2.912,-2.157Zm-30.075,6.125c-0.568,0 -1.124,-0.065 -1.668,-0.195c-0.012,0.118 -0.018,0.302 -0.018,0.55c-0,0.983 0.183,1.722 0.55,2.219c0.367,0.498 0.805,0.746 1.314,0.746c0.509,0 0.994,-0.154 1.456,-0.461c0.461,-0.308 0.864,-0.734 1.207,-1.279c0.426,0.095 0.639,0.314 0.639,0.657c-1.041,1.598 -2.385,2.397 -4.03,2.397c-0.994,-0 -1.864,-0.382 -2.61,-1.145c-0.745,-0.764 -1.118,-1.826 -1.118,-3.187c-0,-1.018 0.195,-1.985 0.586,-2.903c0.39,-0.917 1.012,-1.692 1.864,-2.325c0.852,-0.634 1.796,-0.95 2.831,-0.95c1.036,-0 1.797,0.237 2.282,0.71c0.485,0.473 0.728,1.095 0.728,1.864c-0,1.113 -0.388,1.941 -1.163,2.486c-0.775,0.544 -1.725,0.816 -2.85,0.816Zm54.948,0c-0.568,0 -1.125,-0.065 -1.669,-0.195c-0.012,0.118 -0.018,0.302 -0.018,0.55c0,0.983 0.184,1.722 0.55,2.219c0.367,0.498 0.805,0.746 1.314,0.746c0.509,0 0.994,-0.154 1.456,-0.461c0.462,-0.308 0.864,-0.734 1.207,-1.279c0.426,0.095 0.639,0.314 0.639,0.657c-1.041,1.598 -2.385,2.397 -4.03,2.397c-0.994,-0 -1.864,-0.382 -2.609,-1.145c-0.746,-0.764 -1.119,-1.826 -1.119,-3.187c0,-1.018 0.195,-1.985 0.586,-2.903c0.391,-0.917 1.012,-1.692 1.864,-2.325c0.852,-0.634 1.796,-0.95 2.832,-0.95c1.035,-0 1.796,0.237 2.281,0.71c0.485,0.473 0.728,1.095 0.728,1.864c0,1.113 -0.388,1.941 -1.163,2.486c-0.775,0.544 -1.725,0.816 -2.849,0.816Zm-111.788,1.79c-2.689,0.879 -5.436,1.877 -7.427,2.841c2.321,-0.249 5.148,-0.78 7.848,-1.365c0.221,-0.224 0.59,-0.598 1.074,-1.08c-0.614,-0.16 -1.123,-0.296 -1.495,-0.396Zm102.68,2.578c-0.296,0.165 -0.66,0.248 -1.092,0.248c-0.432,0 -0.671,-0.089 -0.719,-0.266c-0.213,-0.971 -0.402,-2.048 -0.568,-3.231c-0.166,-1.184 -0.272,-1.935 -0.319,-2.255c-1.243,2.568 -2.078,4.403 -2.504,5.504c-0.284,0.165 -0.645,0.248 -1.083,0.248c-0.438,0 -0.68,-0.089 -0.728,-0.266c-0.177,-0.758 -0.366,-1.891 -0.568,-3.4c-0.201,-1.509 -0.414,-2.829 -0.639,-3.959c-0.225,-1.13 -0.509,-1.985 -0.852,-2.565c0.651,-0.308 1.157,-0.462 1.518,-0.462c0.361,0 0.627,0.062 0.799,0.186c0.172,0.125 0.314,0.326 0.426,0.604c0.112,0.278 0.204,0.577 0.275,0.897c0.071,0.319 0.13,0.73 0.178,1.233c0.047,0.503 0.088,0.986 0.124,1.447c0.13,1.74 0.237,2.936 0.32,3.587c1.041,-2.486 1.775,-4.433 2.201,-5.841c-0.189,-0.687 -0.402,-1.237 -0.639,-1.651c0.651,-0.308 1.157,-0.462 1.518,-0.462c0.361,0 0.627,0.062 0.799,0.186c0.171,0.125 0.313,0.326 0.426,0.604c0.112,0.278 0.204,0.577 0.275,0.897c0.071,0.319 0.13,0.73 0.177,1.233c0.048,0.503 0.089,0.986 0.125,1.447c0.13,1.74 0.236,2.936 0.319,3.587c1.752,-4.119 2.646,-6.847 2.681,-8.185c0.935,0.497 1.403,1.003 1.403,1.518c-0,0.515 -0.231,1.302 -0.693,2.361c-0.461,1.06 -1.035,2.279 -1.722,3.658c-0.686,1.378 -1.166,2.411 -1.438,3.098Zm17.736,-5.77c0.426,-1.539 0.938,-2.672 1.536,-3.4c0.597,-0.728 1.154,-1.092 1.668,-1.092c0.515,0 0.903,0.192 1.163,0.577c0.261,0.385 0.391,0.882 0.391,1.491c-0,0.61 -0.181,1.169 -0.542,1.678c-0.361,0.509 -0.855,0.763 -1.482,0.763c-0.166,0 -0.361,-0.047 -0.586,-0.142c0.367,-0.461 0.55,-1.017 0.55,-1.668c0,-0.379 -0.153,-0.569 -0.461,-0.569c-0.225,0 -0.468,0.157 -0.728,0.471c-0.26,0.314 -0.509,0.746 -0.746,1.296c-0.236,0.55 -0.435,1.255 -0.594,2.113c-0.16,0.858 -0.24,1.772 -0.24,2.743c-0,0.118 0.03,0.621 0.089,1.509c-0.379,0.023 -0.622,0.035 -0.728,0.035c-0.675,0 -1.16,-0.118 -1.456,-0.355c-0.296,-0.237 -0.444,-0.627 -0.444,-1.172c0,-0.236 0.124,-1.148 0.373,-2.734c0.249,-1.586 0.373,-2.849 0.373,-3.79c-0,-0.941 -0.101,-1.808 -0.302,-2.601c0.864,0.272 1.468,0.66 1.811,1.163c0.343,0.503 0.515,1.089 0.515,1.757c-0,0.669 -0.054,1.311 -0.16,1.927Zm-115.619,-0.267c0.473,0.136 0.953,0.276 1.441,0.418l0.534,0.511l0.513,0.532c0.144,0.488 0.285,0.968 0.423,1.441c-0.137,0.473 -0.276,0.953 -0.418,1.441l-0.512,0.534l-0.532,0.513c-0.488,0.144 -0.968,0.285 -1.44,0.423c-0.473,-0.137 -0.954,-0.276 -1.442,-0.418l-0.533,-0.512l-0.514,-0.532c-0.144,-0.488 -0.284,-0.968 -0.422,-1.44c0.136,-0.473 0.276,-0.954 0.418,-1.442l0.511,-0.533l0.532,-0.514c0.488,-0.144 0.968,-0.284 1.441,-0.422Zm27.242,-4.829c-0,-0.532 -0.166,-0.979 -0.497,-1.34c-0.332,-0.361 -0.799,-0.541 -1.403,-0.541c-0.604,-0 -1.184,0.124 -1.74,0.372c0,0.722 -0.157,2.539 -0.47,5.451c-0.314,2.911 -0.471,4.775 -0.471,5.592c0.521,0.213 1.024,0.32 1.509,0.32c0.841,-0 1.533,-0.278 2.077,-0.835c0.545,-0.556 0.817,-1.254 0.817,-2.095c0,-0.84 -0.284,-1.541 -0.852,-2.103c-0.568,-0.563 -1.361,-0.867 -2.379,-0.915l-0.053,-0.639c1.089,-0.154 1.938,-0.553 2.547,-1.198c0.61,-0.645 0.915,-1.335 0.915,-2.069Zm56.385,1.971c-0.769,0 -1.456,0.518 -2.059,1.553c-0.604,1.036 -0.906,2.069 -0.906,3.098c0,2.155 0.556,3.232 1.669,3.232c0.793,-0 1.438,-0.518 1.935,-1.554c0.497,-1.035 0.746,-2.198 0.746,-3.488c-0,-1.894 -0.462,-2.841 -1.385,-2.841Zm-95.97,2.358c1.996,0.971 4.786,1.977 7.519,2.861c0.372,-0.101 0.887,-0.238 1.511,-0.401c-0.496,-0.491 -0.872,-0.868 -1.089,-1.088c-2.739,-0.593 -5.606,-1.129 -7.941,-1.372Zm24.575,0.012c-2.32,0.25 -5.147,0.78 -7.848,1.366c-0.22,0.224 -0.59,0.597 -1.074,1.079c0.615,0.161 1.123,0.296 1.495,0.397c2.69,-0.88 5.436,-1.878 7.427,-2.842Zm95.504,-2.618c-0.603,-0 -1.112,0.372 -1.526,1.118c-0.415,0.746 -0.687,1.651 -0.817,2.716l0.266,0c1.03,0 1.79,-0.266 2.282,-0.799c0.491,-0.532 0.736,-1.171 0.736,-1.917c0,-0.308 -0.08,-0.571 -0.239,-0.79c-0.16,-0.219 -0.394,-0.328 -0.702,-0.328Zm-54.947,-0c-0.604,-0 -1.112,0.372 -1.527,1.118c-0.414,0.746 -0.686,1.651 -0.816,2.716l0.266,0c1.03,0 1.79,-0.266 2.281,-0.799c0.491,-0.532 0.737,-1.171 0.737,-1.917c-0,-0.308 -0.08,-0.571 -0.24,-0.79c-0.159,-0.219 -0.393,-0.328 -0.701,-0.328Zm-61.57,-2.744c1.272,1.804 3.122,3.966 4.971,5.997c0.325,0.086 0.817,0.217 1.434,0.386c-0.171,-0.616 -0.304,-1.107 -0.391,-1.432c-2.037,-1.843 -4.206,-3.686 -6.014,-4.951Zm17.542,-0.029c-1.804,1.272 -3.966,3.122 -5.997,4.971c-0.086,0.325 -0.218,0.817 -0.387,1.434c0.617,-0.171 1.108,-0.304 1.433,-0.391c1.842,-2.037 3.685,-4.206 4.951,-6.014Zm5.034,4.513c1.271,-0.989 1.647,-2.793 0.815,-4.224c-0.88,-1.513 -2.791,-2.057 -4.329,-1.262c-1.087,1.871 -3.18,4.419 -5.35,6.852c3.184,-0.673 6.472,-1.246 8.864,-1.366Zm-24.099,-5.452c-1.541,-0.791 -3.45,-0.24 -4.325,1.276c-0.814,1.41 -0.457,3.178 0.768,4.173c2.391,0.111 5.702,0.686 8.909,1.362c-2.17,-2.418 -4.263,-4.95 -5.352,-6.811Zm6.914,-2.504c0.25,2.321 0.78,5.148 1.366,7.848c0.224,0.221 0.597,0.59 1.079,1.074c0.161,-0.614 0.296,-1.123 0.397,-1.495c-0.88,-2.689 -1.878,-5.436 -2.842,-7.427Zm6.801,-0.119c-0.971,1.996 -1.977,4.786 -2.861,7.519c0.1,0.372 0.238,0.887 0.401,1.511c0.491,-0.496 0.868,-0.872 1.087,-1.089c0.594,-2.739 1.13,-5.606 1.373,-7.941Zm-7.679,-1.443c-0.989,-1.271 -2.793,-1.648 -4.224,-0.815c-1.513,0.88 -2.057,2.79 -1.262,4.328c1.871,1.087 4.419,3.181 6.852,5.35c-0.673,-3.184 -1.246,-6.471 -1.366,-8.863Zm13.997,3.482c0.79,-1.541 0.24,-3.45 -1.276,-4.325c-1.411,-0.814 -3.178,-0.457 -4.173,0.768c-0.111,2.391 -0.686,5.702 -1.363,8.909c2.419,-2.17 4.951,-4.263 6.812,-5.352Zm-6.189,-3.823c0.006,-0.178 0.009,-0.35 0.009,-0.516c0,-1.957 -1.588,-3.545 -3.545,-3.545c-1.956,0 -3.544,1.588 -3.544,3.545c-0,0.191 0.003,0.39 0.011,0.597c0.056,0.081 0.108,0.164 0.158,0.25c1.083,1.861 2.254,4.941 3.288,8.035c0.028,-0.007 0.057,-0.011 0.087,-0.011c0.024,0 0.048,0.002 0.07,0.007c1.023,-3.095 2.185,-6.178 3.261,-8.042c0.064,-0.111 0.132,-0.218 0.205,-0.32Z" style="fill:#248ed9;fill-rule:nonzero;"/></svg>