<?xml version="1.0" standalone="no"?>
<svg xmlns:xlink="http://www.w3.org/1999/xlink" id="wave" style="transform:rotate(0deg); transition: 0.3s" viewBox="0 0 1440 300" version="1.1" xmlns="http://www.w3.org/2000/svg"><defs><linearGradient id="sw-gradient-0" x1="0" x2="0" y1="1" y2="0"><stop stop-color="#36a7e9" offset="0%"/><stop stop-color="#0573b3" offset="100%"/></linearGradient></defs><path style="transform:translate(0, 0px); opacity:1" fill="url(#sw-gradient-0)" d="M0,60L48,70C96,80,192,100,288,90C384,80,480,40,576,35C672,30,768,60,864,85C960,110,1056,130,1152,125C1248,120,1344,90,1440,75C1536,60,1632,60,1728,55C1824,50,1920,40,2016,55C2112,70,2208,110,2304,135C2400,160,2496,170,2592,185C2688,200,2784,220,2880,230C2976,240,3072,240,3168,235C3264,230,3360,220,3456,195C3552,170,3648,130,3744,140C3840,150,3936,210,4032,200C4128,190,4224,110,4320,85C4416,60,4512,90,4608,95C4704,100,4800,80,4896,80C4992,80,5088,100,5184,105C5280,110,5376,100,5472,110C5568,120,5664,150,5760,175C5856,200,5952,220,6048,200C6144,180,6240,120,6336,90C6432,60,6528,60,6624,55C6720,50,6816,40,6864,35L6912,30L6912,300L6864,300C6816,300,6720,300,6624,300C6528,300,6432,300,6336,300C6240,300,6144,300,6048,300C5952,300,5856,300,5760,300C5664,300,5568,300,5472,300C5376,300,5280,300,5184,300C5088,300,4992,300,4896,300C4800,300,4704,300,4608,300C4512,300,4416,300,4320,300C4224,300,4128,300,4032,300C3936,300,3840,300,3744,300C3648,300,3552,300,3456,300C3360,300,3264,300,3168,300C3072,300,2976,300,2880,300C2784,300,2688,300,2592,300C2496,300,2400,300,2304,300C2208,300,2112,300,2016,300C1920,300,1824,300,1728,300C1632,300,1536,300,1440,300C1344,300,1248,300,1152,300C1056,300,960,300,864,300C768,300,672,300,576,300C480,300,384,300,288,300C192,300,96,300,48,300L0,300Z"/></svg>